<svg id="Слой_4" data-name="Слой 4" xmlns="http://www.w3.org/2000/svg" xmlns:xlink="http://www.w3.org/1999/xlink" viewBox="0 0 100 100"><defs><style>.cls-1{fill:#fff;}.cls-2{fill:#02e000;}.cls-3{fill:url(#Безымянный_градиент_24);}.cls-4{fill:url(#Безымянный_градиент_24-2);}</style><linearGradient id="Безымянный_градиент_24" x1="9.88" y1="38.92" x2="20.77" y2="38.92" gradientUnits="userSpaceOnUse"><stop offset="0" stop-color="#02e000"/><stop offset="1" stop-color="#002a00"/></linearGradient><linearGradient id="Безымянный_градиент_24-2" x1="2628.11" y1="-546.95" x2="2639" y2="-546.95" gradientTransform="translate(2718.25 -497.7) rotate(180)" xlink:href="#Безымянный_градиент_24"/></defs><title>Монтажная область 4</title><path id="D" class="cls-1" d="M25.21,49.89a11.84,11.84,0,0,0-8.3-3.23H.05c0,5.53-.12,9.67,0,15a16.49,16.49,0,0,0,.33,3.63,10.56,10.56,0,0,0,2.13,4.82c2.43,2.8,6.36,2.77,7.16,2.75h7.24a10.87,10.87,0,0,0,8.3-3.22q3-3.23,3.05-9.87C28.26,57,28.26,53,25.21,49.89Zm-3.82,16q-1.56,1.86-5,1.86h-5.2c-2.12,0-3.62-.49-4.51-1.48s-1.34-2.61-1.34-4.86V51.72H16.41q3.42,0,5,1.88T23,59.75C23,62.59,22.44,64.64,21.39,65.87Z"/><path id="e" class="cls-1" d="M49.06,46.64c3.1,0,5.35.71,6.74,2.11a8.06,8.06,0,0,1,2.08,5.92,7.35,7.35,0,0,1-2,5.58q-2,2-6.84,2H36.57v1.88a3.76,3.76,0,0,0,.91,2.61,4.05,4.05,0,0,0,3.1,1h16v5.11h-16a11.94,11.94,0,0,1-4.19-.65,7.42,7.42,0,0,1-2.82-1.81A6.77,6.77,0,0,1,32,67.64a11.36,11.36,0,0,1-.5-3.45V55.27a11.45,11.45,0,0,1,.5-3.42,6.75,6.75,0,0,1,1.61-2.75,7.42,7.42,0,0,1,2.82-1.81,11.94,11.94,0,0,1,4.19-.65ZM36.57,58.09H48.86a4.27,4.27,0,0,0,3-.84A3,3,0,0,0,52.73,55a3.21,3.21,0,0,0-.9-2.38A3.86,3.86,0,0,0,49,51.7H40.58a4,4,0,0,0-3.1,1,3.75,3.75,0,0,0-.91,2.58Z"/><path id="_" data-name="&gt;" class="cls-2" d="M81.56,46.64l-2.63,5,11.12,6.41h0l2.81,1.62-11.3,6.54v6.48l18.44-11v-3.9Z"/><path id="v" class="cls-1" d="M75.91,46.64,66.84,67.2a1.39,1.39,0,0,1-1.39.77,1.41,1.41,0,0,1-1-.31,1.07,1.07,0,0,1-.31-.46C63.93,66.62,61,59.84,57,50.46a16.23,16.23,0,0,1-2.5.63,17.23,17.23,0,0,1-2.66.26L59.5,69.47A4.83,4.83,0,0,0,61.7,72a8,8,0,0,0,3.75.78,8.05,8.05,0,0,0,3.69-.75,5.23,5.23,0,0,0,2.31-2.6L81.56,46.64Z"/><path id="_2" data-name="&lt;" class="cls-2" d="M10,30.07h0L7.16,28.45l11.3-6.53V15.43L0,26.43v3.9L18.46,41.52l2.31-5.21Z"/><path id="e-2" data-name="e" class="cls-1" d="M44.89,15.39c3.11,0,5.35.7,6.74,2.11a8,8,0,0,1,2.08,5.92,7.38,7.38,0,0,1-2,5.58c-1.35,1.3-3.63,2-6.84,2H32.4v1.88a3.72,3.72,0,0,0,.91,2.6,4,4,0,0,0,3.1,1h16v5.11h-16a11.94,11.94,0,0,1-4.19-.65,7.42,7.42,0,0,1-2.82-1.81,6.74,6.74,0,0,1-1.61-2.73,11.3,11.3,0,0,1-.5-3.44V24a11.35,11.35,0,0,1,.5-3.42,6.85,6.85,0,0,1,1.61-2.76A7.54,7.54,0,0,1,32.22,16a12.19,12.19,0,0,1,4.19-.64ZM32.4,26.84H44.69a4.27,4.27,0,0,0,3-.84,3,3,0,0,0,.87-2.28,3.23,3.23,0,0,0-.89-2.38,3.86,3.86,0,0,0-2.83-.89H36.41a4,4,0,0,0-3.1,1,3.75,3.75,0,0,0-.91,2.58Z"/><path id="v-2" data-name="v" class="cls-1" d="M71.74,15.39,62.67,35.94a1.38,1.38,0,0,1-1.39.78,1.46,1.46,0,0,1-1-.31,1.08,1.08,0,0,1-.31-.47c-.22-.58-3.12-7.35-7.14-16.73a16.23,16.23,0,0,1-2.5.63,17.11,17.11,0,0,1-2.66.25l7.64,18.13a4.89,4.89,0,0,0,2.21,2.57,7.89,7.89,0,0,0,3.74.78A8,8,0,0,0,65,40.81a5.2,5.2,0,0,0,2.31-2.59L77.39,15.39Z"/><polygon id="тень" class="cls-3" points="20.77 36.31 9.88 36.31 18.46 41.52 20.77 36.31"/><path id="_3" data-name="/" class="cls-2" d="M18.46,41.52Q24.22,28.46,30,15.39l5.65,0L24.11,41.52Z"/><path id="_4" data-name="/" class="cls-2" d="M64.39,72.77,75.91,46.64h5.65Q75.8,59.74,70,72.82Z"/><polygon id="тень-2" data-name="тень" class="cls-4" points="79.25 51.85 90.14 51.85 81.56 46.64 79.25 51.85"/></svg>