<svg id="Слой_1" data-name="Слой 1" xmlns="http://www.w3.org/2000/svg" xmlns:xlink="http://www.w3.org/1999/xlink" viewBox="0 0 100 100"><defs><style>.cls-1{fill:lime;stroke:lime;stroke-miterlimit:10;stroke-width:4.91px;}.cls-2{fill:#fff;}.cls-3{fill:#02e000;}.cls-4{fill:url(#Безымянный_градиент_24);}.cls-5{fill:url(#Безымянный_градиент_24-2);}</style><linearGradient id="Безымянный_градиент_24" x1="9.88" y1="39.17" x2="20.77" y2="39.17" gradientUnits="userSpaceOnUse"><stop offset="0" stop-color="#02e000"/><stop offset="1" stop-color="#002a00"/></linearGradient><linearGradient id="Безымянный_градиент_24-2" x1="2628.11" y1="-547.2" x2="2639" y2="-547.2" gradientTransform="translate(2718.25 -497.7) rotate(180)" xlink:href="#Безымянный_градиент_24"/></defs><title>Монтажная область 1</title><g id="атом"><path class="cls-1" d="M12.88,58.8a1.45,1.45,0,1,1-.49,2A1.45,1.45,0,0,1,12.88,58.8Z"/><path class="cls-2" d="M13.88,52.54c1.34.36,2.38,3.54,2.37,7.41,0,4.11-1.21,7.43-2.67,7.43a1.17,1.17,0,0,1-.26,0C12,67,10.94,63.8,11,59.93c0-4.11,1.21-7.43,2.67-7.43a.73.73,0,0,1,.25,0M14,52h0a1.74,1.74,0,0,0-.39-.05c-.67,0-1.62.43-2.37,2.52a16.67,16.67,0,0,0-.83,5.43,17.22,17.22,0,0,0,.7,5.18c.5,1.56,1.21,2.51,2.06,2.74a1.6,1.6,0,0,0,.39.05c.66,0,1.62-.43,2.37-2.52A16.73,16.73,0,0,0,16.77,60a17.22,17.22,0,0,0-.7-5.18c-.5-1.56-1.21-2.51-2.05-2.74Z"/><path class="cls-2" d="M10.71,56.05a17.72,17.72,0,0,1,4.17,1.69c3.6,2,5.94,4.63,5.24,5.91-.42.76-1.81.87-3.63.42a17.72,17.72,0,0,1-4.17-1.69c-3.59-2-5.94-4.63-5.23-5.91.42-.76,1.81-.87,3.62-.42m.13-.51-.13.51.13-.51c-2.18-.54-3.67-.3-4.21.68-.32.58-.4,1.63,1.07,3.29a16.92,16.92,0,0,0,4.37,3.33,18.84,18.84,0,0,0,4.3,1.74c2.18.53,3.67.29,4.2-.68.33-.59.4-1.63-1.07-3.29a16.75,16.75,0,0,0-4.37-3.33,17.91,17.91,0,0,0-4.29-1.74Z"/><path class="cls-2" d="M16.49,56.05c1.82-.45,3.21-.34,3.63.42.7,1.28-1.64,3.92-5.24,5.91a17.72,17.72,0,0,1-4.17,1.69c-1.81.45-3.2.34-3.62-.42-.71-1.28,1.64-3.93,5.23-5.91a17.72,17.72,0,0,1,4.17-1.69m-.12-.51a18,18,0,0,0-4.3,1.74A16.92,16.92,0,0,0,7.7,60.61c-1.47,1.66-1.39,2.7-1.07,3.29.54,1,2,1.21,4.21.68a18.77,18.77,0,0,0,4.29-1.74,16.75,16.75,0,0,0,4.37-3.33c1.47-1.66,1.4-2.71,1.07-3.29-.53-1-2-1.22-4.2-.68l.12.51-.12-.51Z"/></g><path id="D" class="cls-2" d="M25.21,50.14a11.77,11.77,0,0,0-8.3-3.22H.05c0,5.53-.12,9.68,0,15a16.49,16.49,0,0,0,.33,3.63,10.56,10.56,0,0,0,2.13,4.82c2.43,2.8,6.36,2.77,7.16,2.75h7.24a10.87,10.87,0,0,0,8.3-3.22q3-3.23,3.05-9.87C28.26,57.26,28.26,53.23,25.21,50.14Zm-3.82,16Q19.83,68,16.41,68h-5.2c-2.12,0-3.62-.5-4.51-1.49s-1.34-2.61-1.34-4.86V52H16.41q3.42,0,5,1.89T23,60Q23,64.28,21.39,66.13Z"/><path id="e" class="cls-2" d="M49.06,46.89c3.1,0,5.35.71,6.74,2.11a8.07,8.07,0,0,1,2.08,5.93,7.34,7.34,0,0,1-2,5.57q-2,2-6.84,2H36.57v1.88A3.76,3.76,0,0,0,37.48,67a4,4,0,0,0,3.1,1h16v5.11h-16a12,12,0,0,1-4.19-.64,7.54,7.54,0,0,1-2.82-1.81A6.87,6.87,0,0,1,32,67.89a11.36,11.36,0,0,1-.5-3.45V55.52A11.45,11.45,0,0,1,32,52.1a6.81,6.81,0,0,1,1.61-2.75,7.42,7.42,0,0,1,2.82-1.81,11.94,11.94,0,0,1,4.19-.65ZM36.57,58.35H48.86a4.22,4.22,0,0,0,3-.85,3,3,0,0,0,.87-2.28,3.21,3.21,0,0,0-.9-2.38A3.86,3.86,0,0,0,49,52H40.58a4,4,0,0,0-3.1,1,3.79,3.79,0,0,0-.91,2.58Z"/><path id="_" data-name="&gt;" class="cls-3" d="M81.56,46.89l-2.63,5,11.12,6.41h0L92.86,60,81.56,66.5V73L100,62v-3.9Z"/><path id="v" class="cls-2" d="M75.91,46.89,66.84,67.45a1.39,1.39,0,0,1-1.39.77,1.41,1.41,0,0,1-1-.31,1.07,1.07,0,0,1-.31-.46C63.93,66.87,61,60.09,57,50.71a17.39,17.39,0,0,1-2.5.64,18.42,18.42,0,0,1-2.66.25L59.5,69.73a4.85,4.85,0,0,0,2.2,2.56,8,8,0,0,0,3.75.78,8.05,8.05,0,0,0,3.69-.75,5.24,5.24,0,0,0,2.31-2.59L81.56,46.89Z"/><path id="_2" data-name="&lt;" class="cls-3" d="M10,30.32h0L7.16,28.7l11.3-6.53V15.68L0,26.68v3.9L18.46,41.77l2.31-5.21Z"/><path id="e-2" data-name="e" class="cls-2" d="M44.89,15.64c3.11,0,5.35.7,6.74,2.11a8,8,0,0,1,2.08,5.92,7.37,7.37,0,0,1-2,5.58q-2,2-6.84,2H32.4v1.88a3.72,3.72,0,0,0,.91,2.6,4,4,0,0,0,3.1,1h16v5.11h-16a11.94,11.94,0,0,1-4.19-.65,7.42,7.42,0,0,1-2.82-1.81,6.77,6.77,0,0,1-1.61-2.72,11.36,11.36,0,0,1-.5-3.45V24.27a11.45,11.45,0,0,1,.5-3.42A6.75,6.75,0,0,1,29.4,18.1a7.42,7.42,0,0,1,2.82-1.81,11.94,11.94,0,0,1,4.19-.65ZM32.4,27.09H44.69a4.27,4.27,0,0,0,3-.84A3,3,0,0,0,48.56,24a3.25,3.25,0,0,0-.89-2.38,3.9,3.9,0,0,0-2.83-.89H36.41a4,4,0,0,0-3.1,1,3.75,3.75,0,0,0-.91,2.58Z"/><path id="v-2" data-name="v" class="cls-2" d="M71.74,15.64,62.67,36.19a1.38,1.38,0,0,1-1.39.78,1.41,1.41,0,0,1-1-.31,1.08,1.08,0,0,1-.31-.47c-.22-.57-3.12-7.35-7.14-16.73a16.23,16.23,0,0,1-2.5.63,17.11,17.11,0,0,1-2.66.25l7.64,18.13A4.85,4.85,0,0,0,57.54,41a7.89,7.89,0,0,0,3.74.78A8,8,0,0,0,65,41.07a5.23,5.23,0,0,0,2.31-2.6L77.39,15.64Z"/><polygon id="тень" class="cls-4" points="20.77 36.56 9.88 36.56 18.46 41.77 20.77 36.56"/><path id="_3" data-name="/" class="cls-3" d="M18.46,41.77Q24.22,28.71,30,15.64l5.65,0L24.11,41.77Z"/><path id="_4" data-name="/" class="cls-3" d="M64.39,73,75.91,46.89h5.65Q75.8,60,70,73.07Z"/><polygon id="тень-2" data-name="тень" class="cls-5" points="79.25 52.1 90.14 52.1 81.56 46.9 79.25 52.1"/></svg>