<svg id="Слой_2" data-name="Слой 2" xmlns="http://www.w3.org/2000/svg" xmlns:xlink="http://www.w3.org/1999/xlink" viewBox="0 0 100 100"><defs><style>.cls-1{fill:#02e000;}.cls-2{fill:url(#Безымянный_градиент_24);}.cls-3{fill:url(#Безымянный_градиент_24-2);}</style><linearGradient id="Безымянный_градиент_24" x1="9.88" y1="40.07" x2="20.77" y2="40.07" gradientUnits="userSpaceOnUse"><stop offset="0" stop-color="#02e000"/><stop offset="1" stop-color="#002a00"/></linearGradient><linearGradient id="Безымянный_градиент_24-2" x1="2628.11" y1="-548.1" x2="2639" y2="-548.1" gradientTransform="translate(2718.25 -497.7) rotate(180)" xlink:href="#Безымянный_градиент_24"/></defs><title>Монтажная область 2</title><path id="D" d="M25.21,51a11.82,11.82,0,0,0-8.3-3.22H.05c0,5.53-.12,9.68,0,15a16.59,16.59,0,0,0,.33,3.64,10.53,10.53,0,0,0,2.13,4.81C4.94,74,8.87,74,9.67,74h7.24a10.88,10.88,0,0,0,8.3-3.23q3-3.21,3.05-9.86C28.26,58.16,28.26,54.13,25.21,51ZM21.39,67q-1.56,1.86-5,1.86h-5.2c-2.12,0-3.62-.5-4.51-1.49s-1.34-2.61-1.34-4.86V52.88H16.41q3.42,0,5,1.88T23,60.91Q23,65.17,21.39,67Z"/><path id="e" d="M49.06,47.8q4.65,0,6.74,2.11a8,8,0,0,1,2.08,5.92,7.38,7.38,0,0,1-2,5.58c-1.36,1.3-3.64,2-6.84,2H36.57v1.88a3.73,3.73,0,0,0,.91,2.6,4,4,0,0,0,3.1,1h16V74h-16a12,12,0,0,1-4.19-.64,7.42,7.42,0,0,1-2.82-1.81A6.87,6.87,0,0,1,32,68.79a11.34,11.34,0,0,1-.5-3.44V56.42A11.45,11.45,0,0,1,32,53a6.88,6.88,0,0,1,1.61-2.75,7.54,7.54,0,0,1,2.82-1.81,12,12,0,0,1,4.19-.64ZM36.57,59.25H48.86a4.27,4.27,0,0,0,3-.84,3,3,0,0,0,.87-2.28,3.2,3.2,0,0,0-.9-2.38A3.82,3.82,0,0,0,49,52.86H40.58a3.94,3.94,0,0,0-3.1,1,3.74,3.74,0,0,0-.91,2.57Z"/><path id="_" data-name="&gt;" class="cls-1" d="M81.56,47.8c-.88,1.68-1.75,3.36-2.63,5l11.12,6.42h0l2.81,1.63L81.56,67.4v6.49L100,62.9V59Z"/><path id="v" d="M75.91,47.8,66.84,68.35a1.38,1.38,0,0,1-1.39.78,1.41,1.41,0,0,1-1-.32,1.07,1.07,0,0,1-.31-.46C63.93,67.77,61,61,57,51.62a17.47,17.47,0,0,1-2.5.63,17.11,17.11,0,0,1-2.66.25L59.5,70.63a4.87,4.87,0,0,0,2.2,2.57,8,8,0,0,0,3.75.77,8.05,8.05,0,0,0,3.69-.75,5.2,5.2,0,0,0,2.31-2.59L81.56,47.8Z"/><path id="_2" data-name="&lt;" class="cls-1" d="M10,31.23h0L7.16,29.61l11.3-6.54V16.59L0,27.58v3.9l18.44,11.2,2.31-5.21Z"/><path id="e-2" data-name="e" d="M44.89,16.55c3.11,0,5.35.7,6.74,2.1a8.07,8.07,0,0,1,2.08,5.93,7.34,7.34,0,0,1-2,5.57q-2,2-6.84,2H32.4V34a3.75,3.75,0,0,0,.91,2.6,4,4,0,0,0,3.1,1h16v5.1h-16a12,12,0,0,1-4.19-.64,7.54,7.54,0,0,1-2.82-1.81,6.87,6.87,0,0,1-1.61-2.73,11.34,11.34,0,0,1-.5-3.44V25.17a11.45,11.45,0,0,1,.5-3.42A6.81,6.81,0,0,1,29.4,19a7.42,7.42,0,0,1,2.82-1.81,12,12,0,0,1,4.19-.64ZM32.4,28H44.69a4.27,4.27,0,0,0,3-.84,3.06,3.06,0,0,0,.87-2.29,3.21,3.21,0,0,0-.89-2.37,3.86,3.86,0,0,0-2.83-.9H36.41a4,4,0,0,0-3.1,1,3.79,3.79,0,0,0-.91,2.58Z"/><path id="v-2" data-name="v" d="M71.74,16.55,62.67,37.1a1.37,1.37,0,0,1-1.39.77,1.41,1.41,0,0,1-1-.31A1.07,1.07,0,0,1,60,37.1c-.22-.58-3.12-7.36-7.14-16.73a18.91,18.91,0,0,1-2.5.63,17.11,17.11,0,0,1-2.66.25l7.64,18.13A4.92,4.92,0,0,0,57.54,42,9.46,9.46,0,0,0,65,42a5.2,5.2,0,0,0,2.31-2.59L77.39,16.55Z"/><polygon id="тень" class="cls-2" points="20.77 37.47 9.88 37.47 18.46 42.68 20.77 37.47"/><path id="_3" data-name="/" class="cls-1" d="M18.46,42.68Q24.22,29.62,30,16.55h5.65Q29.88,29.63,24.11,42.68Z"/><path id="_4" data-name="/" class="cls-1" d="M64.39,73.93,75.91,47.8h5.65L70,74Z"/><polygon id="тень-2" data-name="тень" class="cls-3" points="79.25 53.01 90.14 53.01 81.56 47.8 79.25 53.01"/></svg>