<svg id="Слой_3" data-name="Слой 3" xmlns="http://www.w3.org/2000/svg" xmlns:xlink="http://www.w3.org/1999/xlink" viewBox="0 0 100 100"><defs><style>.cls-1{fill:lime;stroke:lime;stroke-miterlimit:10;stroke-width:4.91px;}.cls-2{fill:#02e000;}.cls-3{fill:url(#Безымянный_градиент_24);}.cls-4{fill:url(#Безымянный_градиент_24-2);}</style><linearGradient id="Безымянный_градиент_24" x1="9.88" y1="39" x2="20.77" y2="39" gradientUnits="userSpaceOnUse"><stop offset="0" stop-color="#02e000"/><stop offset="1" stop-color="#002a00"/></linearGradient><linearGradient id="Безымянный_градиент_24-2" x1="2628.11" y1="-547.03" x2="2639" y2="-547.03" gradientTransform="translate(2718.25 -497.7) rotate(180)" xlink:href="#Безымянный_градиент_24"/></defs><title>Монтажная область 3</title><g id="атом"><path class="cls-1" d="M12.88,58.62a1.45,1.45,0,1,1,1.5,2.49,1.45,1.45,0,0,1-1.5-2.49Z"/><path d="M13.88,52.37c1.34.36,2.38,3.54,2.37,7.41,0,4.1-1.21,7.43-2.67,7.42a1.15,1.15,0,0,1-.26,0C12,66.81,10.94,63.62,11,59.76c0-4.11,1.21-7.43,2.67-7.43a.73.73,0,0,1,.25,0m.14-.51h0a1.74,1.74,0,0,0-.39,0c-.67,0-1.62.43-2.37,2.51a16.77,16.77,0,0,0-.83,5.44,17.22,17.22,0,0,0,.7,5.18c.5,1.56,1.21,2.51,2.06,2.73a1.23,1.23,0,0,0,.39.06c.66,0,1.62-.43,2.37-2.52a16.77,16.77,0,0,0,.82-5.43,17.13,17.13,0,0,0-.7-5.18c-.5-1.56-1.21-2.51-2.05-2.74Z"/><path d="M10.71,55.88a17.3,17.3,0,0,1,4.17,1.69c3.6,2,5.94,4.62,5.24,5.91-.42.75-1.81.86-3.63.42a17.79,17.79,0,0,1-4.17-1.7c-3.59-2-5.94-4.62-5.23-5.9.42-.76,1.81-.87,3.62-.42m.13-.51-.13.51.13-.51c-2.18-.54-3.67-.3-4.21.67-.32.59-.4,1.64,1.07,3.29a16.7,16.7,0,0,0,4.37,3.33,18,18,0,0,0,4.3,1.74c2.18.54,3.67.3,4.2-.67.33-.59.4-1.63-1.07-3.29a16.75,16.75,0,0,0-4.37-3.33,17.91,17.91,0,0,0-4.29-1.74Z"/><path d="M16.49,55.88c1.82-.45,3.21-.34,3.63.42.7,1.28-1.64,3.92-5.24,5.9a17.79,17.79,0,0,1-4.17,1.7c-1.81.44-3.2.33-3.62-.42-.71-1.29,1.64-3.93,5.23-5.91a17.3,17.3,0,0,1,4.17-1.69m-.12-.51a18,18,0,0,0-4.3,1.74A16.92,16.92,0,0,0,7.7,60.44c-1.47,1.66-1.39,2.7-1.07,3.29.54,1,2,1.21,4.21.67a17.91,17.91,0,0,0,4.29-1.74,16.54,16.54,0,0,0,4.37-3.33c1.47-1.65,1.4-2.7,1.07-3.29-.53-1-2-1.21-4.2-.67l.12.51-.12-.51Z"/></g><path id="D" d="M25.21,50a11.79,11.79,0,0,0-8.3-3.23H.05c0,5.53-.12,9.67,0,15a16.49,16.49,0,0,0,.33,3.63,10.6,10.6,0,0,0,2.13,4.82c2.43,2.8,6.36,2.77,7.16,2.75h7.24a10.87,10.87,0,0,0,8.3-3.22q3-3.23,3.05-9.87C28.26,57.08,28.26,53.06,25.21,50ZM21.39,66q-1.56,1.86-5,1.86h-5.2c-2.12,0-3.62-.49-4.51-1.48s-1.34-2.61-1.34-4.86V51.8H16.41q3.42,0,5,1.88T23,59.83Q23,64.09,21.39,66Z"/><path id="e" d="M49.06,46.72c3.1,0,5.35.71,6.74,2.11a8,8,0,0,1,2.08,5.92,7.35,7.35,0,0,1-2,5.58q-2,2-6.84,2H36.57v1.88a3.76,3.76,0,0,0,.91,2.61,4.05,4.05,0,0,0,3.1,1h16V72.9h-16a11.94,11.94,0,0,1-4.19-.65,7.42,7.42,0,0,1-2.82-1.81A6.77,6.77,0,0,1,32,67.72a11.36,11.36,0,0,1-.5-3.45V55.35a11.45,11.45,0,0,1,.5-3.42,6.75,6.75,0,0,1,1.61-2.75,7.42,7.42,0,0,1,2.82-1.81,11.94,11.94,0,0,1,4.19-.65ZM36.57,58.17H48.86a4.27,4.27,0,0,0,3-.84,3,3,0,0,0,.87-2.28,3.21,3.21,0,0,0-.9-2.38A3.86,3.86,0,0,0,49,51.78H40.58a4,4,0,0,0-3.1,1,3.75,3.75,0,0,0-.91,2.58Z"/><path id="_" data-name="&gt;" class="cls-2" d="M81.56,46.72l-2.63,5,11.12,6.41h0l2.81,1.62-11.3,6.54v6.48l18.44-11v-3.9Z"/><path id="v" d="M75.91,46.72,66.84,67.27a1.38,1.38,0,0,1-1.39.78,1.41,1.41,0,0,1-1-.31,1.08,1.08,0,0,1-.31-.47C63.93,66.7,61,59.92,57,50.54a16.23,16.23,0,0,1-2.5.63,16,16,0,0,1-2.66.25L59.5,69.55a4.83,4.83,0,0,0,2.2,2.57,8,8,0,0,0,3.75.78,8.05,8.05,0,0,0,3.69-.75,5.23,5.23,0,0,0,2.31-2.6L81.56,46.72Z"/><path id="_2" data-name="&lt;" class="cls-2" d="M10,30.15h0L7.16,28.53,18.46,22V15.51L0,26.51v3.9L18.46,41.6l2.31-5.21Z"/><path id="e-2" data-name="e" d="M44.89,15.47c3.11,0,5.35.7,6.74,2.11a8,8,0,0,1,2.08,5.92,7.38,7.38,0,0,1-2,5.58c-1.35,1.3-3.63,2-6.84,2H32.4v1.88a3.72,3.72,0,0,0,.91,2.6,4,4,0,0,0,3.1,1h16v5.1h-16A12,12,0,0,1,32.22,41a7.42,7.42,0,0,1-2.82-1.81,6.8,6.8,0,0,1-1.61-2.73,11.3,11.3,0,0,1-.5-3.44V24.1a11.35,11.35,0,0,1,.5-3.42,6.85,6.85,0,0,1,1.61-2.76,7.54,7.54,0,0,1,2.82-1.81,12.19,12.19,0,0,1,4.19-.64ZM32.4,26.92H44.69a4.27,4.27,0,0,0,3-.84,3,3,0,0,0,.87-2.28,3.23,3.23,0,0,0-.89-2.38,3.86,3.86,0,0,0-2.83-.89H36.41a4,4,0,0,0-3.1,1,3.75,3.75,0,0,0-.91,2.58Z"/><path id="v-2" data-name="v" d="M71.74,15.47,62.67,36a1.38,1.38,0,0,1-1.39.78,1.46,1.46,0,0,1-1-.31A1.14,1.14,0,0,1,60,36c-.22-.58-3.12-7.35-7.14-16.73a17.47,17.47,0,0,1-2.5.63,17.11,17.11,0,0,1-2.66.25L55.33,38.3a4.89,4.89,0,0,0,2.21,2.57,7.89,7.89,0,0,0,3.74.78A8,8,0,0,0,65,40.89a5.2,5.2,0,0,0,2.31-2.59L77.39,15.47Z"/><polygon id="тень" class="cls-3" points="20.77 36.39 9.88 36.39 18.46 41.6 20.77 36.39"/><path id="_3" data-name="/" class="cls-2" d="M18.46,41.6Q24.22,28.54,30,15.47l5.65,0L24.11,41.6Z"/><path id="_4" data-name="/" class="cls-2" d="M64.39,72.85,75.91,46.72h5.65Q75.8,59.82,70,72.9Z"/><polygon id="тень-2" data-name="тень" class="cls-4" points="79.25 51.93 90.14 51.93 81.56 46.72 79.25 51.93"/></svg>